<mxfile host="app.diagrams.net" agent="Mozilla/5.0 (Windows NT 10.0; Win64; x64) AppleWebKit/537.36 (KHTML, like Gecko) Chrome/127.0.0.0 Safari/537.36" version="24.7.6">
  <diagram name="Страница — 1" id="zfzfKZ8zbx2iG-syE7SA">
    <mxGraphModel dx="922" dy="750" grid="1" gridSize="10" guides="1" tooltips="1" connect="1" arrows="1" fold="1" page="1" pageScale="1" pageWidth="827" pageHeight="1169" math="0" shadow="0">
      <root>
        <mxCell id="0" />
        <mxCell id="1" parent="0" />
        <mxCell id="rspmrvrM9AfJtTUXDsYE-1" value="" style="rounded=0;whiteSpace=wrap;html=1;" vertex="1" parent="1">
          <mxGeometry x="290" y="130" width="240" height="120" as="geometry" />
        </mxCell>
        <mxCell id="rspmrvrM9AfJtTUXDsYE-2" value="" style="rounded=0;whiteSpace=wrap;html=1;" vertex="1" parent="1">
          <mxGeometry x="10" y="320" width="240" height="120" as="geometry" />
        </mxCell>
        <mxCell id="rspmrvrM9AfJtTUXDsYE-3" value="" style="rounded=0;whiteSpace=wrap;html=1;" vertex="1" parent="1">
          <mxGeometry x="290" y="320" width="240" height="120" as="geometry" />
        </mxCell>
        <mxCell id="rspmrvrM9AfJtTUXDsYE-4" value="" style="rounded=0;whiteSpace=wrap;html=1;" vertex="1" parent="1">
          <mxGeometry x="560" y="320" width="240" height="120" as="geometry" />
        </mxCell>
        <mxCell id="rspmrvrM9AfJtTUXDsYE-5" value="Yandex Clolud" style="text;html=1;align=center;verticalAlign=middle;resizable=0;points=[];autosize=1;strokeColor=none;fillColor=none;" vertex="1" parent="1">
          <mxGeometry x="440" y="110" width="100" height="30" as="geometry" />
        </mxCell>
        <mxCell id="rspmrvrM9AfJtTUXDsYE-6" value="AWS" style="text;html=1;align=center;verticalAlign=middle;resizable=0;points=[];autosize=1;strokeColor=none;fillColor=none;" vertex="1" parent="1">
          <mxGeometry x="210" y="300" width="50" height="30" as="geometry" />
        </mxCell>
        <mxCell id="rspmrvrM9AfJtTUXDsYE-7" value="GCP" style="text;html=1;align=center;verticalAlign=middle;resizable=0;points=[];autosize=1;strokeColor=none;fillColor=none;" vertex="1" parent="1">
          <mxGeometry x="490" y="300" width="50" height="30" as="geometry" />
        </mxCell>
        <mxCell id="rspmrvrM9AfJtTUXDsYE-8" value="AZURE" style="text;html=1;align=center;verticalAlign=middle;resizable=0;points=[];autosize=1;strokeColor=none;fillColor=none;" vertex="1" parent="1">
          <mxGeometry x="755" y="300" width="60" height="30" as="geometry" />
        </mxCell>
      </root>
    </mxGraphModel>
  </diagram>
</mxfile>
